<svg viewBox="0 0 201 83" fill="none"
     xmlns="http://www.w3.org/2000/svg">
    <g clip-path="url(#clip0_14_16)">
        <style>
            @media (prefers-color-scheme: dark) {
                #sideText {
                    fill: white
                }
            }
        </style>
        <path id="sideText"
              d="M71.993 75.351C69.905 75.351 68.285 74.712 67.133 73.434C65.981 72.138 65.405 70.356 65.405 68.088C65.405 65.73 66.017 63.894 67.241 62.58C68.483 61.266 70.175 60.609 72.317 60.609C73.937 60.609 75.674 60.978 77.528 61.716C77.492 62.238 77.411 62.931 77.285 63.795C77.159 64.641 77.024 65.424 76.88 66.144L75.071 66.306L73.397 64.173C72.947 64.083 72.443 64.038 71.885 64.038C71.435 64.038 71.021 64.065 70.643 64.119C70.229 64.911 70.022 66.027 70.022 67.467C70.022 68.943 70.283 70.041 70.805 70.761C71.327 71.463 72.119 71.814 73.181 71.814C73.685 71.814 74.297 71.742 75.017 71.598C75.737 71.436 76.475 71.211 77.231 70.923L77.879 73.623C77.159 74.127 76.259 74.541 75.179 74.865C74.117 75.189 73.055 75.351 71.993 75.351ZM85.9463 75.351C83.6603 75.351 81.9503 74.766 80.8163 73.596C79.7003 72.426 79.1423 70.635 79.1423 68.223C79.1423 66.675 79.4213 65.325 79.9793 64.173C80.5553 63.021 81.3743 62.139 82.4363 61.527C83.4983 60.915 84.7493 60.609 86.1893 60.609C90.8513 60.609 93.1823 63.021 93.1823 67.845C93.1823 70.203 92.5433 72.048 91.2653 73.38C90.0053 74.694 88.2323 75.351 85.9463 75.351ZM86.3783 72.192C86.7383 72.192 87.0533 72.165 87.3233 72.111C87.5933 72.039 87.8813 71.931 88.1873 71.787C88.2953 71.373 88.3853 70.842 88.4573 70.194C88.5293 69.546 88.5653 68.925 88.5653 68.331C88.5653 66.873 88.3313 65.766 87.8633 65.01C87.4133 64.254 86.7383 63.876 85.8383 63.876C85.2443 63.876 84.6413 63.957 84.0293 64.119C83.9033 64.389 83.8043 64.83 83.7323 65.442C83.6603 66.036 83.6243 66.72 83.6243 67.494C83.6243 69.006 83.8583 70.167 84.3263 70.977C84.8123 71.787 85.4963 72.192 86.3783 72.192ZM94.495 72.408L96.169 71.922V65.388C96.169 64.992 96.142 64.74 96.088 64.632C96.034 64.506 95.89 64.371 95.656 64.227L94.468 63.579L94.549 61.554L95.143 61.446C97.501 60.978 99.202 60.726 100.246 60.69C100.39 61.068 100.507 61.482 100.597 61.932C101.695 61.428 102.586 61.086 103.27 60.906C103.972 60.708 104.629 60.609 105.241 60.609C108.103 60.609 109.534 62.319 109.534 65.739V71.031C109.534 71.409 109.561 71.661 109.615 71.787C109.669 71.913 109.822 72.048 110.074 72.192L111.37 72.948L111.262 74.973H103.81L103.675 72.408L104.998 72.03V66.927C104.998 66.117 104.971 65.55 104.917 65.226C104.863 64.902 104.71 64.65 104.458 64.47C104.224 64.29 103.801 64.2 103.189 64.2C102.541 64.2 101.722 64.299 100.732 64.497V71.031C100.732 71.409 100.759 71.661 100.813 71.787C100.867 71.913 101.011 72.048 101.245 72.192L102.568 72.948L102.46 74.973H94.63L94.495 72.408ZM112.319 72.408L113.993 71.922V65.388C113.993 64.992 113.966 64.74 113.912 64.632C113.858 64.506 113.714 64.371 113.48 64.227L112.292 63.579L112.373 61.554L112.967 61.446C115.325 60.978 117.026 60.726 118.07 60.69C118.214 61.068 118.331 61.482 118.421 61.932C119.519 61.428 120.41 61.086 121.094 60.906C121.796 60.708 122.453 60.609 123.065 60.609C125.927 60.609 127.358 62.319 127.358 65.739V71.031C127.358 71.409 127.385 71.661 127.439 71.787C127.493 71.913 127.646 72.048 127.898 72.192L129.194 72.948L129.086 74.973H121.634L121.499 72.408L122.822 72.03V66.927C122.822 66.117 122.795 65.55 122.741 65.226C122.687 64.902 122.534 64.65 122.282 64.47C122.048 64.29 121.625 64.2 121.013 64.2C120.365 64.2 119.546 64.299 118.556 64.497V71.031C118.556 71.409 118.583 71.661 118.637 71.787C118.691 71.913 118.835 72.048 119.069 72.192L120.392 72.948L120.284 74.973H112.454L112.319 72.408ZM136.434 75.324C134.328 75.324 132.699 74.685 131.547 73.407C130.413 72.129 129.846 70.365 129.846 68.115C129.846 66.549 130.125 65.208 130.683 64.092C131.241 62.958 132.033 62.094 133.059 61.5C134.085 60.906 135.282 60.609 136.65 60.609C138.684 60.609 140.241 61.257 141.321 62.553C142.419 63.849 142.941 65.694 142.887 68.088L134.679 69.6C134.931 70.356 135.282 70.914 135.732 71.274C136.2 71.616 136.812 71.787 137.568 71.787C138.09 71.787 138.711 71.715 139.431 71.571C140.151 71.409 140.88 71.193 141.618 70.923L142.239 73.596C141.573 74.1 140.709 74.514 139.647 74.838C138.585 75.162 137.514 75.324 136.434 75.324ZM138.459 65.82C138.423 65.136 138.225 64.641 137.865 64.335C137.523 64.011 137.037 63.849 136.407 63.849C135.885 63.849 135.39 63.921 134.922 64.065C134.544 64.947 134.373 65.901 134.409 66.927L138.459 65.82ZM151.279 75.351C149.191 75.351 147.571 74.712 146.419 73.434C145.267 72.138 144.691 70.356 144.691 68.088C144.691 65.73 145.303 63.894 146.527 62.58C147.769 61.266 149.461 60.609 151.603 60.609C153.223 60.609 154.96 60.978 156.814 61.716C156.778 62.238 156.697 62.931 156.571 63.795C156.445 64.641 156.31 65.424 156.166 66.144L154.357 66.306L152.683 64.173C152.233 64.083 151.729 64.038 151.171 64.038C150.721 64.038 150.307 64.065 149.929 64.119C149.515 64.911 149.308 66.027 149.308 67.467C149.308 68.943 149.569 70.041 150.091 70.761C150.613 71.463 151.405 71.814 152.467 71.814C152.971 71.814 153.583 71.742 154.303 71.598C155.023 71.436 155.761 71.211 156.517 70.923L157.165 73.623C156.445 74.127 155.545 74.541 154.465 74.865C153.403 75.189 152.341 75.351 151.279 75.351ZM164.835 75.351C163.251 75.351 162.081 74.964 161.325 74.19C160.569 73.398 160.191 72.201 160.191 70.599V64.038H158.301V62.067L163.161 57.639L164.727 57.828V60.879H169.263V64.065H164.727V69.627C164.727 70.491 164.844 71.067 165.078 71.355C165.33 71.643 165.807 71.787 166.509 71.787C167.103 71.787 167.931 71.706 168.993 71.544L169.317 74.298C168.669 74.604 167.94 74.856 167.13 75.054C166.338 75.252 165.573 75.351 164.835 75.351ZM177.066 75.324C174.96 75.324 173.331 74.685 172.179 73.407C171.045 72.129 170.478 70.365 170.478 68.115C170.478 66.549 170.757 65.208 171.315 64.092C171.873 62.958 172.665 62.094 173.691 61.5C174.717 60.906 175.914 60.609 177.282 60.609C179.316 60.609 180.873 61.257 181.953 62.553C183.051 63.849 183.573 65.694 183.519 68.088L175.311 69.6C175.563 70.356 175.914 70.914 176.364 71.274C176.832 71.616 177.444 71.787 178.2 71.787C178.722 71.787 179.343 71.715 180.063 71.571C180.783 71.409 181.512 71.193 182.25 70.923L182.871 73.596C182.205 74.1 181.341 74.514 180.279 74.838C179.217 75.162 178.146 75.324 177.066 75.324ZM179.091 65.82C179.055 65.136 178.857 64.641 178.497 64.335C178.155 64.011 177.669 63.849 177.039 63.849C176.517 63.849 176.022 63.921 175.554 64.065C175.176 64.947 175.005 65.901 175.041 66.927L179.091 65.82ZM190.831 75.351C189.103 75.351 187.753 74.703 186.781 73.407C185.809 72.111 185.323 70.374 185.323 68.196C185.323 65.694 185.98 63.804 187.294 62.526C188.626 61.248 190.516 60.609 192.964 60.609C193.108 60.609 193.576 60.627 194.368 60.663V59.043C194.368 58.647 194.341 58.386 194.287 58.26C194.233 58.134 194.08 57.999 193.828 57.855L192.613 57.234L192.748 55.182C194.476 54.876 195.754 54.669 196.582 54.561C197.41 54.435 198.067 54.363 198.553 54.345C198.715 54.759 198.832 55.227 198.904 55.749V71.112C198.904 71.436 198.931 71.661 198.985 71.787C199.057 71.913 199.21 72.039 199.444 72.165L200.47 72.786L200.362 74.46C198.598 74.91 196.87 75.18 195.178 75.27C195.052 74.928 194.926 74.514 194.8 74.028C193.576 74.91 192.253 75.351 190.831 75.351ZM192.397 71.895C192.991 71.895 193.657 71.697 194.395 71.301V64.308C193.855 64.074 193.162 63.957 192.316 63.957C191.632 63.957 190.975 64.047 190.345 64.227C190.201 64.569 190.084 65.037 189.994 65.631C189.922 66.225 189.886 66.882 189.886 67.602C189.886 69.078 190.084 70.167 190.48 70.869C190.894 71.553 191.533 71.895 192.397 71.895Z"
              fill="#0B0B0B"/>
        <path d="M63.296 42.96L66.32 42.144V23.76C66.32 22.928 66.256 22.384 66.128 22.128C66.032 21.84 65.728 21.584 65.216 21.36L63.2 20.208L63.344 15.648H78.32L78.56 20.544L75.008 21.504V42.24L81.056 42.096L85.136 37.44L88.832 37.632C88.768 40.32 88.544 43.776 88.16 48H63.536L63.296 42.96ZM93.2473 12.48L101.407 10.32L103.375 17.616L95.2633 19.824L93.2473 12.48ZM91.2313 43.584L94.5913 42.576V30.912C94.5913 30.208 94.5273 29.76 94.3993 29.568C94.3033 29.344 94.0313 29.104 93.5833 28.848L91.4713 27.696L91.7113 24.096C94.3673 23.584 96.4153 23.216 97.8553 22.992C99.3273 22.736 100.671 22.592 101.887 22.56C102.303 23.936 102.559 24.96 102.655 25.632V40.992C102.655 41.664 102.703 42.112 102.799 42.336C102.895 42.56 103.167 42.8 103.615 43.056L105.967 44.4L105.775 48H91.3753L91.2313 43.584ZM107.906 29.472C107.554 28.608 107.314 28.048 107.186 27.792C107.058 27.536 106.818 27.184 106.466 26.736L105.65 25.68L105.89 22.896H117.986L118.466 26.976L115.682 27.648L120.05 40.032L124.274 28.656C124.338 28.464 124.37 28.32 124.37 28.224C124.37 27.936 124.226 27.744 123.938 27.648L121.682 26.688L122.114 22.896H131.234L131.714 26.784L122.21 48.096L115.298 48.624L107.906 29.472ZM145.026 48.576C141.282 48.576 138.386 47.44 136.338 45.168C134.322 42.896 133.314 39.76 133.314 35.76C133.314 32.976 133.81 30.592 134.802 28.608C135.794 26.592 137.202 25.056 139.026 24C140.85 22.944 142.978 22.416 145.41 22.416C149.026 22.416 151.794 23.568 153.714 25.872C155.666 28.176 156.594 31.456 156.498 35.712L141.906 38.4C142.354 39.744 142.978 40.736 143.778 41.376C144.61 41.984 145.698 42.288 147.042 42.288C147.97 42.288 149.074 42.16 150.354 41.904C151.634 41.616 152.93 41.232 154.242 40.752L155.346 45.504C154.162 46.4 152.626 47.136 150.738 47.712C148.85 48.288 146.946 48.576 145.026 48.576ZM148.626 31.68C148.562 30.464 148.21 29.584 147.57 29.04C146.962 28.464 146.098 28.176 144.978 28.176C144.05 28.176 143.17 28.304 142.338 28.56C141.666 30.128 141.362 31.824 141.426 33.648L148.626 31.68ZM165.785 48.624C163.609 48.624 161.865 48.032 160.553 46.848C159.241 45.632 158.585 44.08 158.585 42.192C158.585 39.664 159.849 37.68 162.377 36.24C164.937 34.8 168.649 33.984 173.513 33.792C173.513 32.288 173.385 31.184 173.129 30.48C172.905 29.744 172.473 29.248 171.833 28.992C171.225 28.704 170.281 28.56 169.001 28.56C167.689 28.56 166.761 28.608 166.217 28.704L164.249 32.592L160.697 32.352C160.153 29.792 159.769 27.136 159.545 24.384C161.337 23.776 163.289 23.296 165.401 22.944C167.545 22.592 169.545 22.416 171.401 22.416C174.793 22.416 177.225 23.088 178.697 24.432C180.169 25.744 180.905 27.936 180.905 31.008V41.04C180.905 41.616 180.953 42.016 181.049 42.24C181.177 42.464 181.433 42.688 181.817 42.912L183.737 44.016L183.545 46.992C179.833 47.856 176.905 48.336 174.761 48.432C174.697 48.24 174.601 47.904 174.473 47.424C174.345 46.912 174.233 46.432 174.137 45.984C172.889 46.784 171.513 47.424 170.009 47.904C168.537 48.384 167.129 48.624 165.785 48.624ZM169.001 43.2C170.281 43.2 171.833 42.768 173.657 41.904L173.465 38.256C172.697 38.192 172.185 38.16 171.929 38.16C171.065 38.16 170.057 38.256 168.905 38.448C167.753 38.608 166.841 38.8 166.169 39.024C166.073 39.44 166.025 39.824 166.025 40.176C166.025 41.136 166.281 41.888 166.793 42.432C167.337 42.944 168.073 43.2 169.001 43.2ZM185.403 43.584L188.763 42.576V19.584C188.763 18.88 188.699 18.432 188.571 18.24C188.475 18.016 188.203 17.776 187.755 17.52L185.643 16.416L185.883 12.768C186.523 12.64 187.019 12.56 187.371 12.528C191.595 11.76 194.539 11.344 196.203 11.28C196.523 12.016 196.731 12.848 196.827 13.776V40.992C196.827 41.664 196.875 42.112 196.971 42.336C197.067 42.56 197.339 42.8 197.787 43.056L200.139 44.4L199.947 48H185.547L185.403 43.584Z"
                fill="#FF4A4A"/>
        <path d="M0 33H24.5C38.031 33 49 43.969 49 57.5V69C49 76.732 42.732 83 35 83H24.5C10.969 83 0 72.031 0 58.5V33Z"
                fill="#FF4A4A"/>
        <circle id="red" cx="25" cy="33" r="25" transform="rotate(-90 25 33)" fill="#FF4A4A"/>
        <circle cx="25" cy="33" r="18" transform="rotate(-90 25 33)" fill="white"/>
        <circle cx="35" cy="58" r="25" transform="rotate(-90 35 58)" fill="black"/>
        <circle cx="35" cy="58" r="18" transform="rotate(-90 35 58)" fill="white"/>
    </g>
    <defs>
        <clipPath id="clip0_14_16">
            <rect width="201" height="83" fill="white"/>
        </clipPath>
    </defs>
</svg>